<svg width="113" height="113" viewBox="0 0 113 113" fill="none" xmlns="http://www.w3.org/2000/svg">
<path d="M32.9219 84.9999C27.6116 80.617 24.9564 78.4255 23.4461 75.4452C21.9357 72.4649 21.7384 69.0278 21.3439 62.1537L20.3176 44.27C19.9602 38.0432 19.7815 34.9298 20.6265 32.1815C21.389 29.7016 22.743 27.4443 24.572 25.6042C26.5989 23.565 29.4299 22.2569 35.0918 19.6409C42.9235 16.0223 46.8394 14.213 50.9194 13.4904C54.611 12.8366 58.3888 12.8366 62.0805 13.4904C66.1605 14.213 70.0763 16.0223 77.9081 19.6409C83.57 22.2569 86.4009 23.565 88.4279 25.6042C90.2568 27.4443 91.6109 29.7016 92.3734 32.1815C93.2183 34.9298 93.0396 38.0432 92.6823 44.27L91.6559 62.1537C91.2614 69.0278 91.0642 72.4649 89.5538 75.4452C88.0435 78.4255 85.3883 80.617 80.078 84.9999L76.8694 87.6481C67.1231 95.6922 62.25 99.7143 56.4999 99.7143C50.7499 99.7143 45.8767 95.6922 36.1305 87.6481L32.9219 84.9999Z" fill="#F9E25D"/>
<path d="M18.1885 19.2593C21.63 15.7968 26.3048 13.7863 31.3162 11.4708C38.7157 8.0519 43.8537 5.60166 49.3495 4.62827C54.0794 3.79058 58.9206 3.79058 63.6505 4.62827C69.1461 5.60166 74.2833 8.05207 81.6824 11.4708C86.694 13.7864 91.3692 15.7974 94.8108 19.26C97.6686 22.1351 99.7846 25.6618 100.976 29.5365C102.411 34.203 101.983 39.2739 101.667 44.7856L100.641 62.669C100.291 68.7664 100.14 74.4664 97.5819 79.5139C95.024 84.5613 90.5172 88.0532 85.807 91.9408L82.5981 94.589C77.9004 98.4662 73.7542 101.909 70.0234 104.287C66.083 106.798 61.732 108.715 56.5 108.715C51.268 108.715 46.9171 106.798 42.9766 104.287C39.2458 101.909 35.0997 98.4662 30.402 94.589L27.1931 91.9408C22.4829 88.0532 17.9761 84.5613 15.4181 79.5139C12.8601 74.4664 12.7089 68.7664 12.359 62.669L11.3329 44.7856C11.0166 39.2739 10.5894 34.203 12.0241 29.5365C13.2154 25.6617 15.3308 22.1344 18.1885 19.2593ZM24.572 25.6042C22.743 27.4443 21.389 29.7016 20.6265 32.1815L20.4797 32.7012C19.8043 35.3307 19.9825 38.4322 20.3176 44.27L21.4851 64.5763C21.8078 69.88 22.1245 72.8374 23.4461 75.4452L23.5912 75.7229C25.1252 78.5648 27.778 80.7543 32.9219 84.9999L36.1305 87.6481C45.8767 95.6922 50.7499 99.7143 56.4999 99.7143C62.25 99.7143 67.1231 95.6922 76.8694 87.6481L80.078 84.9999C85.2219 80.7543 87.8749 78.5648 89.4088 75.7229L89.5538 75.4452C90.8754 72.8373 91.1915 69.8797 91.5142 64.5756L91.6559 62.1537L92.6823 44.27C93.0173 38.4326 93.1949 35.3312 92.5196 32.7019L92.3734 32.1815C91.6586 29.8568 90.4236 27.7279 88.7652 25.9547L88.4279 25.6042C86.6543 23.8199 84.2654 22.5951 79.9029 20.5644L77.9081 19.6409C70.0763 16.0223 66.1605 14.213 62.0805 13.4904C58.6196 12.8775 55.0827 12.8389 51.6124 13.3753L50.9194 13.4904C47.3495 14.1227 43.9052 15.5869 37.8535 18.3671L35.0918 19.6409C29.7835 22.0935 26.9638 23.3967 24.9619 25.2303L24.572 25.6042Z" fill="white"/>
<path d="M54.3682 61.604C55.612 61.3025 56.914 61.324 58.1495 61.6685C59.0705 61.9253 59.8135 62.3592 60.4385 62.7925C61.0273 63.2007 61.6809 63.7321 62.3585 64.2798L71.3252 71.5279C72.8285 72.7429 73.0627 74.9464 71.8477 76.4497C70.6326 77.9531 68.4282 78.1863 66.9249 76.9712L57.9581 69.7232C57.201 69.1113 56.778 68.7726 56.4502 68.5454C56.3327 68.4639 56.26 68.4212 56.2237 68.4009C56.1646 68.3903 56.1041 68.3901 56.045 68.4009C56.0083 68.4214 55.936 68.4646 55.8194 68.5454C55.4916 68.7726 55.0687 69.1112 54.3116 69.7232L45.3448 76.9712C43.8415 78.1863 41.6381 77.9529 40.4229 76.4497C39.2078 74.9465 39.4412 72.743 40.9444 71.5279L49.9112 64.2798C50.5887 63.7322 51.2423 63.2007 51.8311 62.7925C52.4562 62.3592 53.2001 61.9253 54.1211 61.6685L54.3682 61.604Z" fill="white"/>
<path d="M54.3682 47.104C55.612 46.8025 56.914 46.824 58.1495 47.1685C59.0705 47.4253 59.8135 47.8592 60.4385 48.2925C61.0273 48.7007 61.6809 49.2321 62.3585 49.7798L71.3252 57.0279C72.8285 58.2429 73.0627 60.4464 71.8477 61.9497C70.6326 63.4531 68.4282 63.6863 66.9249 62.4712L57.9581 55.2232C57.201 54.6113 56.778 54.2726 56.4502 54.0454C56.3327 53.9639 56.26 53.9212 56.2237 53.9009C56.1646 53.8903 56.1041 53.8901 56.045 53.9009C56.0083 53.9214 55.936 53.9646 55.8194 54.0454C55.4916 54.2726 55.0687 54.6112 54.3116 55.2232L45.3448 62.4712C43.8415 63.6863 41.6381 63.4529 40.4229 61.9497C39.2078 60.4465 39.4412 58.243 40.9444 57.0279L49.9112 49.7798C50.5887 49.2322 51.2423 48.7007 51.8311 48.2925C52.4562 47.8592 53.2001 47.4253 54.1211 47.1685L54.3682 47.104Z" fill="white"/>
<path d="M54.3682 32.604C55.612 32.3025 56.914 32.324 58.1495 32.6685C59.0705 32.9253 59.8135 33.3592 60.4385 33.7925C61.0273 34.2007 61.6809 34.7321 62.3585 35.2798L71.3252 42.5279C72.8285 43.7429 73.0627 45.9464 71.8477 47.4497C70.6326 48.953 68.4282 49.1863 66.9249 47.9712L57.9581 40.7232C57.201 40.1112 56.778 39.7726 56.4502 39.5454C56.3327 39.4639 56.26 39.4212 56.2237 39.4009C56.1646 39.3902 56.1041 39.3901 56.045 39.4009C56.0083 39.4214 55.936 39.4646 55.8194 39.5454C55.4916 39.7726 55.0687 40.1112 54.3116 40.7232L45.3448 47.9712C43.8415 49.1863 41.6381 48.9529 40.4229 47.4497C39.2078 45.9465 39.4412 43.743 40.9444 42.5279L49.9112 35.2798C50.5887 34.7322 51.2423 34.2007 51.8311 33.7925C52.4562 33.3592 53.2001 32.9253 54.1211 32.6685L54.3682 32.604Z" fill="white"/>
</svg>
